<?xml version="1.0" encoding="utf-8"?>
<!-- Generator: Adobe Illustrator 26.1.0, SVG Export Plug-In . SVG Version: 6.00 Build 0)  -->
<svg version="1.1" id="レイヤー_1" xmlns="http://www.w3.org/2000/svg" xmlns:xlink="http://www.w3.org/1999/xlink" x="0px"
	 y="0px" viewBox="0 0 1440 1080" style="enable-background:new 0 0 1440 1080;" xml:space="preserve">
<style type="text/css">
	.st0{fill:#EDE0D9;}
</style>
<g>
	<g>
		<g>
			<path class="st0" d="M92.56,157.69C91.55,152.64,91,147.39,91,142c0-39.21,28.21-71,63-71s63,31.79,63,71
				c0,4.91-0.44,9.7-1.28,14.32l35.37,36.62L295,149.03L154.03,8.06L13.06,149.03l45.38,45.38L92.56,157.69z"/>
		</g>
		<g>
			<path class="st0" d="M154,186c15.3,0,28.91-8.07,37.7-20.64l-24.36-35.1l-13.04,13.04l-0.19-0.19l-0.12,0.13l-14.39-13.37
				l-23.26,35.55C125.13,177.95,138.73,186,154,186z"/>
		</g>
		<g>
			<path class="st0" d="M154,77.81c-26.51,0-48,24.22-48,54.1c0,3.55,0.31,7.01,0.89,10.36l21.34-22.96l-0.12-0.11l6.29-6.76
				l20.02,18.6l18.81-18.81l6.09,6.09l-0.15,0.15l22.11,22.89c0.48-3.07,0.74-6.22,0.74-9.44C202,102.03,180.51,77.81,154,77.81z"/>
		</g>
		<g>
			<path class="st0" d="M204.71,184.12C193.24,201.63,174.8,213,154,213c-20.56,0-38.81-11.1-50.31-28.26l-21.73,33.2L154.03,290
				l73.3-73.3L204.71,184.12z"/>
		</g>
	</g>
</g>
</svg>
